HIERARCHY
ROOT Hips
{
	OFFSET 45.753399 -0.386190 53.336300
	CHANNELS 6 Xposition Yposition Zposition Xrotation Yrotation Zrotation
	JOINT spine
	{
		OFFSET 0.000000 -0.477352 8.301041
		CHANNELS 3 Xrotation Yrotation Zrotation
		JOINT spine1
		{
			OFFSET 0.000000 -0.000002 10.456501
			CHANNELS 3 Xrotation Yrotation Zrotation
			JOINT spine2
			{
				OFFSET 0.000000 -0.000002 10.019203
				CHANNELS 3 Xrotation Yrotation Zrotation
				JOINT Neck
				{
					OFFSET 0.000000 -1.226414 25.723503
					CHANNELS 3 Xrotation Yrotation Zrotation
					JOINT Head
					{
						OFFSET 0.000000 -0.000001 7.771751
						CHANNELS 3 Xrotation Yrotation Zrotation
						End Site
						{
							OFFSET 0.000000 6.203937 18.812004
						}
					}
				}
				JOINT RightShoulder
				{
					OFFSET -4.218800 0.587437 10.820000
					CHANNELS 3 Xrotation Yrotation Zrotation
					JOINT RightArm
					{
						OFFSET 0.000000 -0.000002 14.191399
						CHANNELS 3 Xrotation Yrotation Zrotation
						JOINT RightArmRoll
						{
							OFFSET 0.000000 -0.000001 7.164093
							CHANNELS 3 Xrotation Yrotation Zrotation
							JOINT RightForeArm
							{
								OFFSET 0.000000 -0.000003 20.866493
								CHANNELS 3 Xrotation Yrotation Zrotation
								JOINT RightForeArmRoll
								{
									OFFSET 0.000000 -0.000001 8.039215
									CHANNELS 3 Xrotation Yrotation Zrotation
									JOINT RightHand
									{
										OFFSET 0.000000 -0.000003 16.132996
										CHANNELS 3 Xrotation Yrotation Zrotation
										End Site
										{
											OFFSET 0.000000 -0.000000 0.100006
										}
									}
								}
							}
						}
					}
				}
				JOINT LeftShoulder
				{
					OFFSET 4.218800 0.587437 10.820000
					CHANNELS 3 Xrotation Yrotation Zrotation
					JOINT LeftArm
					{
						OFFSET 0.000000 -0.000002 14.191399
						CHANNELS 3 Xrotation Yrotation Zrotation
						JOINT LeftArmRoll
						{
							OFFSET 0.000000 -0.000001 7.164078
							CHANNELS 3 Xrotation Yrotation Zrotation
							JOINT LeftForeArm
							{
								OFFSET 0.000000 -0.000003 20.866508
								CHANNELS 3 Xrotation Yrotation Zrotation
								JOINT LeftForeArmRoll
								{
									OFFSET 0.000000 -0.000001 8.039215
									CHANNELS 3 Xrotation Yrotation Zrotation
									JOINT LeftHand
									{
										OFFSET 0.000000 -0.000003 16.132996
										CHANNELS 3 Xrotation Yrotation Zrotation
										End Site
										{
											OFFSET 0.000000 -0.000000 0.100006
										}
									}
								}
							}
						}
					}
				}
			}
		}
	}
	JOINT RightUpLeg
	{
		OFFSET -7.357731 1.131820 -1.349209
		CHANNELS 3 Xrotation Yrotation Zrotation
		JOINT RightUpLegRoll
		{
			OFFSET 0.000000 -0.000003 18.916801
			CHANNELS 3 Xrotation Yrotation Zrotation
			JOINT RightLeg
			{
				OFFSET 0.000000 0.000004 -23.425598
				CHANNELS 3 Xrotation Yrotation Zrotation
				JOINT RightLegRoll
				{
					OFFSET 0.000000 -0.000004 23.502296
					CHANNELS 3 Xrotation Yrotation Zrotation
					JOINT RightFoot
					{
						OFFSET 0.000000 -0.000003 19.561699
						CHANNELS 3 Xrotation Yrotation Zrotation
						JOINT RightToeBase
						{
							OFFSET 0.000000 -0.000003 16.352600
							CHANNELS 3 Xrotation Yrotation Zrotation
							End Site
							{
								OFFSET 0.006931 0.912835 7.919441
							}
						}
					}
				}
			}
		}
	}
	JOINT LeftUpLeg
	{
		OFFSET 7.357731 1.131820 -1.349209
		CHANNELS 3 Xrotation Yrotation Zrotation
		JOINT LeftUpLegRoll
		{
			OFFSET 0.000000 -0.000003 18.916901
			CHANNELS 3 Xrotation Yrotation Zrotation
			JOINT LeftLeg
			{
				OFFSET 0.000000 -0.000004 23.425499
				CHANNELS 3 Xrotation Yrotation Zrotation
				JOINT LeftLegRoll
				{
					OFFSET 0.000000 -0.000004 23.719498
					CHANNELS 3 Xrotation Yrotation Zrotation
					JOINT LeftFoot
					{
						OFFSET 0.000000 -0.000003 19.344398
						CHANNELS 3 Xrotation Yrotation Zrotation
						JOINT LeftToeBase
						{
							OFFSET 0.000000 -0.000003 16.352600
							CHANNELS 3 Xrotation Yrotation Zrotation
							End Site
							{
								OFFSET -0.031063 0.912836 7.919434
							}
						}
					}
				}
			}
		}
	}
}
MOTION
Frames: 13
Frame Time: 0.041667
44.288200 -31.484425 98.638596 -2.833669 0.220172 1.660538 -1.232469 -0.199236 0.216478 1.524539 -0.402294 0.429663 3.169607 -0.397115 0.434708 19.985984 0.789603 -0.744150 -6.889784 1.076979 -0.773260 -4.350268 -73.187089 -6.425389 -76.016720 -114.747724 -51.152834 -0.000002 -0.000004 -0.000003 0.366947 -8.733014 0.293439 0.000001 0.000004 -3.001080 -5.000195 -7.998912 0.000123 4.573937 64.153365 -4.542968 -54.315283 111.511472 36.542769 -0.000000 0.000000 0.000001 0.339826 8.302797 0.524750 0.000008 0.000008 3.006999 -5.000214 7.998952 -0.000118 -0.713969 -175.120368 0.810128 -179.999991 0.000005 -1.139994 172.576518 -2.614923 -0.730586 -0.000003 -0.000005 0.090336 68.890272 6.929358 2.034667 25.456892 -7.353001 0.000001 -1.955951 172.269447 -0.499896 -0.000005 -0.000004 -1.212420 -11.758593 2.558846 1.071503 -0.000002 0.000002 -0.169970 68.935296 -6.953915 -1.976430 25.456889 7.347853 0.000003 
44.288700 -31.477322 98.642090 -2.830770 0.221075 1.664911 -1.232207 -0.198084 0.215874 1.526058 -0.401421 0.427469 3.171126 -0.396264 0.432784 19.994797 0.792579 -0.744601 -6.900195 1.074165 -0.773374 -4.361618 -73.184541 -6.437574 -76.021638 -114.783556 -51.228758 -0.000005 -0.000004 -0.000004 0.477529 -8.772220 0.295675 -0.000000 0.000004 -3.001079 -5.000192 -7.998913 0.000122 4.558942 64.152531 -4.526019 -54.348857 111.541497 36.625407 0.000000 0.000000 -0.000001 0.442378 8.323576 0.518991 0.000007 0.000007 3.006998 -5.000212 7.998952 -0.000119 -0.732388 -175.118401 0.813740 -179.999991 0.000005 -1.139994 172.559825 -2.621773 -0.731257 -0.000003 -0.000005 0.090743 68.891535 6.929361 2.034590 25.456890 -7.353000 0.000001 -1.981020 172.264556 -0.503772 -0.000006 -0.000004 -1.212430 -11.782753 2.562743 1.072353 -0.000002 0.000001 -0.169931 68.932851 -6.953888 -1.976380 25.456885 7.347853 0.000002 
44.301399 -31.437517 98.632690 -2.828120 0.222124 1.669133 -1.231966 -0.196891 0.215298 1.527598 -0.400577 0.425263 3.172666 -0.395444 0.430869 20.003512 0.795218 -0.745081 -6.910281 1.071650 -0.773540 -4.373280 -73.182690 -6.450133 -76.027935 -114.819114 -51.306940 -0.000007 -0.000003 -0.000006 0.588671 -8.812314 0.298060 0.000002 0.000004 -3.001079 -5.000194 -7.998913 0.000121 4.543444 64.151411 -4.508532 -54.379951 111.571953 36.705648 0.000002 0.000000 -0.000000 0.545042 8.344629 0.513134 0.000007 0.000007 3.006999 -5.000213 7.998952 -0.000118 -0.749823 -175.116420 0.817196 -179.999991 0.000005 -1.139994 172.544225 -2.628614 -0.732877 -0.000003 -0.000005 0.091134 68.892696 6.929358 2.034616 25.456894 -7.352999 -0.000000 -2.005329 172.260690 -0.508002 -0.000005 -0.000004 -1.212450 -11.806516 2.566751 1.073185 -0.000002 0.000002 -0.169874 68.930440 -6.953930 -1.976338 25.456885 7.347852 0.000003 
44.289902 -31.435516 98.628601 -2.825658 0.223275 1.673260 -1.231725 -0.195670 0.214742 1.529147 -0.399754 0.423050 3.174216 -0.394644 0.428960 20.012225 0.797623 -0.745583 -6.920160 1.069354 -0.773744 -4.385076 -73.181235 -6.462875 -76.035230 -114.854467 -51.386491 -0.000005 -0.000004 -0.000005 0.700224 -8.853020 0.300607 0.000001 0.000003 -3.001080 -5.000194 -7.998913 0.000124 4.527576 64.149997 -4.490654 -54.410810 111.602340 36.785848 0.000001 0.000000 0.000001 0.647797 8.365864 0.507183 0.000007 0.000008 3.007000 -5.000212 7.998952 -0.000118 -0.766577 -175.114439 0.820545 -179.999991 0.000005 -1.139994 172.529363 -2.635474 -0.733472 -0.000004 -0.000005 0.091513 68.893864 6.929389 2.034549 25.456895 -7.352999 -0.000001 -2.029127 172.255814 -0.512413 -0.000005 -0.000005 -1.212460 -11.829979 2.570848 1.074006 -0.000001 0.000002 -0.169804 68.928104 -6.953908 -1.976380 25.456887 7.347853 0.000003 
44.289001 -31.429216 98.639893 -2.823303 0.224486 1.677321 -1.231497 -0.194432 0.214196 1.530708 -0.398943 0.420833 3.175775 -0.393856 0.427054 20.020941 0.799894 -0.746097 -6.929906 1.067168 -0.773970 -4.397015 -73.180081 -6.475804 -76.042716 -114.889779 -51.466678 -0.000005 -0.000004 -0.000004 0.812013 -8.894081 0.303309 0.000001 0.000004 -3.001081 -5.000192 -7.998911 0.000123 4.511528 64.148590 -4.472587 -54.443639 111.632147 36.868173 -0.000002 -0.000000 0.000001 0.750597 8.387202 0.501144 0.000007 0.000008 3.007000 -5.000213 7.998952 -0.000116 -0.782939 -175.112445 0.823829 -179.999991 0.000005 -1.139994 172.514965 -2.641333 -0.734915 -0.000003 -0.000005 0.091886 68.895039 6.929423 2.034482 25.456894 -7.353000 0.000000 -2.052629 172.250923 -0.516951 -0.000005 -0.000006 -1.212490 -11.853344 2.574984 1.074826 -0.000002 0.000002 -0.169726 68.925884 -6.953886 -1.976318 25.456892 7.347855 0.000002 
44.295200 -31.417824 98.638290 -2.820964 0.225712 1.681372 -1.231266 -0.193191 0.213653 1.532257 -0.398135 0.418615 3.177335 -0.393071 0.425148 20.029547 0.802132 -0.746615 -6.939614 1.065022 -0.774201 -4.408987 -73.178920 -6.488764 -76.050325 -114.924995 -51.547001 -0.000006 -0.000004 -0.000004 0.923884 -8.935268 0.306182 -0.000001 0.000004 -3.001080 -5.000195 -7.998911 0.000122 4.495422 64.147088 -4.454452 -54.474348 111.662542 36.948212 0.000001 0.000000 0.000000 0.853424 8.408572 0.495027 0.000009 0.000008 3.007000 -5.000213 7.998953 -0.000117 -0.799201 -175.110464 0.827098 -179.999991 0.000005 -1.139994 172.500649 -2.648181 -0.735475 -0.000003 -0.000005 0.092256 68.896207 6.929453 2.034315 25.456892 -7.353000 0.000001 -2.076055 172.246046 -0.521515 -0.000005 -0.000004 -1.212510 -11.876606 2.579129 1.075642 -0.000002 0.000002 -0.169647 68.923562 -6.953900 -1.976264 25.456890 7.347853 0.000003 
44.297501 -31.408226 98.638092 -2.818581 0.226908 1.685451 -1.231027 -0.191958 0.213105 1.533817 -0.397321 0.416397 3.178895 -0.392280 0.423241 20.038260 0.804437 -0.747128 -6.949392 1.062816 -0.774423 -4.420864 -73.177670 -6.501620 -76.057599 -114.960335 -51.626825 -0.000007 -0.000003 -0.000004 1.035675 -8.976299 0.309215 0.000002 0.000004 -3.001080 -5.000192 -7.998914 0.000123 4.479405 64.145571 -4.436418 -54.504981 111.692936 37.028177 0.000001 0.000001 0.000001 0.956239 8.429894 0.488840 0.000007 0.000008 3.006998 -5.000212 7.998952 -0.000118 -0.815661 -175.109494 0.830411 -179.999991 0.000004 -1.141005 172.486155 -2.654052 -0.736930 -0.000003 -0.000005 0.092631 68.897368 6.929449 2.034340 25.456894 -7.353002 0.000001 -2.099626 172.241142 -0.526013 -0.000004 -0.000004 -1.212530 -11.899971 2.583253 1.076468 -0.000002 0.000002 -0.169570 68.921240 -6.953913 -1.976212 25.456889 7.347853 0.000002 
44.296101 -31.396818 98.633698 -2.816060 0.228032 1.689607 -1.230794 -0.190745 0.212543 1.535367 -0.396493 0.414187 3.180434 -0.391474 0.421330 20.046974 0.806908 -0.747627 -6.959325 1.060461 -0.774619 -4.432625 -73.176113 -6.514321 -76.063582 -114.995838 -51.705034 -0.000006 -0.000003 -0.000004 1.147218 -9.016924 0.312404 0.000000 0.000004 -3.001079 -5.000193 -7.998913 0.000122 4.463654 64.144260 -4.418664 -54.535546 111.723337 37.108059 0.000000 -0.000001 -0.000000 1.059012 8.451097 0.482591 0.000006 0.000008 3.007000 -5.000212 7.998952 -0.000117 -0.832609 -175.107500 0.833785 -179.999991 0.000005 -1.141005 172.471060 -2.660894 -0.737547 -0.000004 -0.000005 0.093013 68.898638 6.929449 2.034161 25.456895 -7.352998 0.000000 -2.123580 172.236266 -0.530346 -0.000005 -0.000005 -1.212550 -11.923534 2.587326 1.077309 -0.000002 0.000002 -0.169504 68.918924 -6.953925 -1.976162 25.456883 7.347853 0.000002 
44.293201 -31.381121 98.628998 -2.813341 0.229039 1.693875 -1.230546 -0.189564 0.211958 1.536897 -0.395641 0.411985 3.181975 -0.390645 0.419412 20.055689 0.809647 -0.748102 -6.969524 1.057857 -0.774775 -4.444190 -73.174057 -6.526760 -76.068322 -115.031464 -51.781464 -0.000005 -0.000003 -0.000004 1.258352 -9.056881 0.315751 -0.000000 0.000005 -3.001080 -5.000194 -7.998912 0.000122 4.448294 64.143222 -4.401330 -54.566361 111.753895 37.187969 0.000001 0.000000 -0.000000 1.161709 8.472096 0.476295 0.000006 0.000007 3.006999 -5.000215 7.998952 -0.000117 -0.850340 -175.105532 0.837282 -179.999991 0.000004 -1.141005 172.455119 -2.667729 -0.739204 -0.000003 -0.000005 0.093409 68.899806 6.929483 2.034094 25.456890 -7.352999 -0.000000 -2.148119 172.231402 -0.534420 -0.000005 -0.000004 -1.212560 -11.947398 2.591295 1.078166 -0.000002 0.000002 -0.169453 68.916588 -6.953901 -1.976103 25.456887 7.347854 0.000001 
44.292599 -31.370520 98.633896 -2.810331 0.229887 1.698305 -1.230286 -0.188428 0.211342 1.538417 -0.394757 0.409794 3.183484 -0.389784 0.417485 20.064511 0.812755 -0.748548 -6.980057 1.054925 -0.774875 -4.455432 -73.171304 -6.538795 -76.071034 -115.067432 -51.854936 -0.000006 -0.000003 -0.000005 1.368918 -9.095926 0.319245 0.000001 0.000004 -3.001079 -5.000195 -7.998913 0.000122 4.433508 64.142477 -4.384601 -54.597267 111.784536 37.267851 -0.000001 0.000001 0.000001 1.264306 8.492825 0.469955 0.000007 0.000007 3.007000 -5.000214 7.998952 -0.000117 -0.869154 -175.102554 0.840932 -179.999991 0.000005 -1.141005 172.437988 -2.674572 -0.739926 -0.000004 -0.000005 0.093823 68.901070 6.929484 2.034115 25.456894 -7.352998 0.000000 -2.173483 172.227537 -0.538178 -0.000005 -0.000004 -1.212570 -11.971659 2.595144 1.079050 -0.000002 0.000002 -0.169422 68.914068 -6.953900 -1.976161 25.456889 7.347853 0.000002 
44.290199 -31.362720 98.629898 -2.806965 0.230531 1.702933 -1.230017 -0.187348 0.210687 1.539897 -0.393831 0.407620 3.184974 -0.388882 0.415545 20.073424 0.816332 -0.748955 -6.991049 1.051566 -0.774905 -4.466268 -73.167664 -6.550320 -76.071546 -115.103769 -51.925267 -0.000005 -0.000005 -0.000006 1.478734 -9.133788 0.322873 0.000001 0.000004 -3.001080 -5.000192 -7.998912 0.000124 4.419413 64.141999 -4.368605 -54.628256 111.815272 37.347604 0.000000 0.000001 0.000001 1.366770 8.513194 0.463587 0.000007 0.000008 3.006999 -5.000213 7.998952 -0.000118 -0.889337 -175.100587 0.844811 -179.999991 0.000005 -1.141005 172.419342 -2.681389 -0.741717 -0.000003 -0.000005 0.094260 68.902245 6.929515 2.034047 25.456894 -7.352998 0.000000 -2.199892 172.222674 -0.541446 -0.000005 -0.000005 -1.212569 -11.996423 2.598829 1.079961 -0.000002 0.000002 -0.169417 68.911431 -6.953929 -1.976133 25.456889 7.347855 0.000003 
44.282700 -31.348722 98.628296 -2.803143 0.230927 1.707807 -1.229726 -0.186337 0.209985 1.541357 -0.392856 0.405463 3.186433 -0.387929 0.413592 20.082551 0.820478 -0.749315 -7.002560 1.047688 -0.774850 -4.476668 -73.163026 -6.561275 -76.069299 -115.140638 -51.991608 -0.000006 -0.000005 -0.000005 1.587665 -9.170229 0.326625 -0.000000 0.000003 -3.001079 -5.000195 -7.998911 0.000123 4.406151 64.141999 -4.353496 -54.659671 111.846246 37.427319 -0.000001 -0.000001 -0.000000 1.469065 8.533135 0.457197 0.000006 0.000009 3.007000 -5.000215 7.998952 -0.000118 -0.911186 -175.096612 0.848921 -179.999991 0.000004 -1.141005 172.398865 -2.688208 -0.742604 -0.000003 -0.000005 0.094726 68.903502 6.929481 2.034162 25.456895 -7.353000 0.000000 -2.227561 172.219805 -0.544245 -0.000005 -0.000004 -1.212560 -12.021883 2.602310 1.080909 -0.000002 0.000002 -0.169445 68.908781 -6.953885 -1.976191 25.456887 7.347854 0.000002 
44.296700 -31.322523 98.622696 -2.798812 0.231033 1.712964 -1.229427 -0.185407 0.209226 1.542786 -0.391822 0.403329 3.187853 -0.386919 0.411622 20.091778 0.825293 -0.749620 -7.014718 1.043204 -0.774692 -4.486512 -73.157200 -6.571529 -76.063698 -115.178095 -52.053114 -0.000007 -0.000003 -0.000004 1.695517 -9.204967 0.330484 0.000003 0.000004 -3.001081 -5.000188 -7.998914 0.000122 4.393924 64.142573 -4.339481 -54.689280 111.877959 37.504859 0.000000 0.000000 0.000001 1.571158 8.552584 0.450808 0.000007 0.000008 3.007000 -5.000211 7.998953 -0.000117 -0.934999 -175.093662 0.853351 -179.999991 0.000005 -1.141005 172.376189 -2.695986 -0.744727 -0.000003 -0.000005 0.095225 68.904765 6.929484 2.034183 25.456895 -7.352998 0.000000 -2.256732 172.215966 -0.546362 -0.000005 -0.000004 -1.212550 -12.048043 2.605559 1.081896 -0.000002 0.000002 -0.169509 68.905824 -6.953897 -1.976180 25.456889 7.347853 0.000003 
